<?xml version="1.0" standalone="no"?>
<!DOCTYPE svg PUBLIC "-//W3C//DTD SVG 20010904//EN"
 "http://www.w3.org/TR/2001/REC-SVG-20010904/DTD/svg10.dtd">
<svg version="1.0" xmlns="http://www.w3.org/2000/svg"
 width="170.000000pt" height="170.000000pt" viewBox="0 0 170.000000 170.000000"
 preserveAspectRatio="xMidYMid meet">
<metadata>
Created by potrace 1.14, written by Peter Selinger 2001-2017
</metadata>
<g transform="translate(0.000000,170.000000) scale(0.100000,-0.100000)"
fill="#000000" stroke="none">
<path d="M0 850 l0 -850 850 0 850 0 0 850 0 850 -850 0 -850 0 0 -850z m713
518 c80 -38 158 -115 193 -191 l29 -62 3 -383 3 -383 -30 -29 c-41 -42 -100
-42 -142 -1 l-29 29 -1 354 c-1 381 -2 395 -54 449 -46 49 -81 59 -210 59
-155 0 -195 21 -195 100 0 22 9 41 30 61 l30 30 157 -3 c147 -3 162 -5 216
-30z m652 10 c15 -14 28 -38 32 -60 5 -33 2 -41 -30 -73 l-35 -35 -147 0 c-88
0 -155 4 -168 11 -63 32 -75 102 -28 150 l29 29 161 0 c151 0 161 -1 186 -22z"/>
</g>
</svg>
